<svg id="Capa_1" enable-background="new 0 0 512 512" height="512" viewBox="0 0 512 512" width="512" xmlns="http://www.w3.org/2000/svg"><g><path d="m385 390.943c-12.406 0-22.5 10.093-22.5 22.5s10.094 22.5 22.5 22.5 22.5-10.093 22.5-22.5-10.094-22.5-22.5-22.5zm0 30c-4.136 0-7.5-3.364-7.5-7.5s3.364-7.5 7.5-7.5 7.5 3.364 7.5 7.5-3.364 7.5-7.5 7.5z"/><path d="m232.5 373.943c-4.142 0-7.5 3.358-7.5 7.5v39c0 4.142 3.358 7.5 7.5 7.5s7.5-3.358 7.5-7.5v-39c0-4.142-3.358-7.5-7.5-7.5z"/><path d="m132.5 373.943c-4.142 0-7.5 3.358-7.5 7.5v39c0 4.142 3.358 7.5 7.5 7.5s7.5-3.358 7.5-7.5v-39c0-4.142-3.358-7.5-7.5-7.5z"/><path d="m390.676 197.595c-3.262-4.791-8.669-7.651-14.465-7.651h-27.711c-6.893 0-12.5 5.607-12.5 12.5v84c0 6.893 5.607 12.5 12.5 12.5h87.547c4.644 0 8.878-2.55 11.049-6.655 2.172-4.105 1.897-9.041-.717-12.879zm-39.676 86.348v-79h25.211c.828 0 1.601.409 2.066 1.093l53.043 77.907z"/><path d="m363.5 313.943h-20c-4.143 0-7.5 3.358-7.5 7.5s3.357 7.5 7.5 7.5h20c4.143 0 7.5-3.358 7.5-7.5s-3.357-7.5-7.5-7.5z"/><path d="m483.5 323.943h-1.5v-27.132c0-9.607-2.866-18.878-8.289-26.811l-64.085-93.723c-6.993-10.228-18.565-16.334-30.956-16.334h-7.67v-68.417l4.666-.762c12.245-2 20.578-13.59 18.577-25.834-2-12.244-13.593-20.575-25.833-18.577l-323.743 52.899c-5.931.969-11.13 4.19-14.639 9.069-3.508 4.88-4.907 10.833-3.938 16.765 1.787 10.937 11.118 18.874 22.188 18.874.573 0 1.148-.026 1.723-.07v16.541c-28.176 3.686-50 27.849-50 57.013v186c0 9.649 7.851 17.5 17.5 17.5h28.544c3.651 25.407 25.554 45 51.956 45 7.106 0 13.948-1.39 20.393-4.118 4.152 2.648 9.023 4.118 14.107 4.118 8.767 0 16.916-4.347 21.799-11.629l2.963-4.42c6.023-8.982 10.557-18.736 13.54-28.951h23.395c2.983 10.215 7.517 19.969 13.54 28.951l2.964 4.421c4.883 7.281 13.032 11.628 21.798 11.628s16.916-4.347 21.799-11.629l2.964-4.42c6.022-8.981 10.557-18.736 13.54-28.951h62.242c3.651 25.407 25.554 45 51.956 45s48.304-19.593 51.956-45h27.543c9.649 0 17.5-7.851 17.5-17.5v-22.5h1.5c15.715 0 28.5-12.785 28.5-28.5 0-15.716-12.785-28.501-28.5-28.501zm-435.223-194.983c-3.683 0-6.788-2.646-7.384-6.293-.667-4.082 2.111-7.944 6.192-8.611l323.743-52.899c3.992-.68 7.964 2.09 8.611 6.192.733 3.965-2.2 8.043-6.191 8.611l-323.744 52.899c-.408.067-.821.101-1.227.101zm-33.277 274.483v-32.5h15v35h-12.5c-1.378 0-2.5-1.121-2.5-2.5zm45.5 10c0-18.05 12.504-33.013 29.5-36.648v14.8c0 .276.013.551.015.828-8.491 3.262-14.515 11.556-14.515 21.021 0 12.407 10.093 22.5 22.5 22.5.611 0 1.218-.028 1.823-.077 2.231 4.77 4.826 9.392 7.785 13.826-3.105.821-6.314 1.25-9.608 1.25-20.678 0-37.5-16.822-37.5-37.5zm49.456-186.437c-6.896 12.243-12.056 25.365-15.407 38.937h-49.549v-48.5c0-6.893 5.607-12.5 12.5-12.5h64.989c-.268.372-.529.751-.757 1.156zm-18.388 182.612c.591 3.394 1.349 6.75 2.27 10.06-2.011-1.347-3.338-3.638-3.338-6.235 0-1.388.393-2.697 1.068-3.825zm53.236 31.922-2.963 4.42c-2.092 3.12-5.584 4.983-9.34 4.983s-7.248-1.863-9.34-4.982l-2.964-4.421c-9.942-14.825-15.197-32.096-15.197-49.945v-88.499c0-24.027 6.233-47.793 18.025-68.728l9.475-16.822 9.475 16.822c11.792 20.935 18.025 44.7 18.025 68.728v75.348 13.151c0 17.849-5.255 35.12-15.196 49.945zm45.196-138.444v72.848h-15v-72.848-98.152h47.489c-.268.372-.529.751-.757 1.156l-11.776 20.907c-13.056 23.177-19.956 49.488-19.956 76.089zm-15.995 102.847c.651-4.729.995-9.52.995-14.349v-.651h15v.651c0 4.829.344 9.619.995 14.349zm70.799 35.597-2.963 4.42c-2.092 3.12-5.584 4.983-9.34 4.983s-7.248-1.863-9.34-4.982l-2.964-4.421c-9.942-14.825-15.197-32.096-15.197-49.945v-88.499c0-24.027 6.233-47.793 18.025-68.728l9.475-16.822 9.475 16.822c11.792 20.935 18.025 44.701 18.025 68.728v18.49c0 4.142 3.357 7.5 7.5 7.5s7.5-3.358 7.5-7.5v-18.49c0-26.6-6.9-52.911-19.956-76.089l-11.776-20.907c-.228-.405-.489-.784-.757-1.156h63.489v171h-31v-19.358c0-4.142-3.357-7.5-7.5-7.5s-7.5 3.358-7.5 7.5v35.009c0 17.85-5.255 35.12-15.196 49.945zm140.196 9.403c-20.678 0-37.5-16.822-37.5-37.5s16.822-37.5 37.5-37.5 37.5 16.822 37.5 37.5-16.822 37.5-37.5 37.5zm82-47.5c0 1.378-1.121 2.5-2.5 2.5h-27.544c-3.651-25.407-25.554-45-51.956-45s-48.304 19.593-51.956 45h-59.039c.651-4.729.995-9.52.995-14.349v-.651h33.5c6.893 0 12.5-5.607 12.5-12.5v-176c0-6.893-5.607-12.5-12.5-12.5h-136c-6.893 0-12.5 5.607-12.5 12.5v34.154c-1.541-3.248-3.187-6.451-4.956-9.591l-10.079-17.894c.021-.226.035-.454.035-.686v-5.983c0-6.893-5.607-12.5-12.5-12.5h-75c-15.164 0-27.5 12.336-27.5 27.5v51c0 6.893 5.607 12.5 12.5 12.5h49.118c-.719 4.968-1.198 9.973-1.432 15h-52.686c-4.142 0-7.5 3.358-7.5 7.5s3.358 7.5 7.5 7.5h52.5v15h-52.5c-4.142 0-7.5 3.358-7.5 7.5s3.358 7.5 7.5 7.5h52.5v20.62c-11.248 1.715-21.608 7.013-29.659 15.301-7.807 8.037-12.75 18.163-14.307 29.08h-1.034v-37.5c0-6.893-5.607-12.5-12.5-12.5h-17.5v-138.5c0-23.435 19.065-42.5 42.5-42.5 4.142 0 7.5-3.358 7.5-7.5v-25.917l291-47.549v65.966h-263.5c-4.142 0-7.5 3.358-7.5 7.5s3.358 7.5 7.5 7.5h286.17c7.435 0 14.378 3.664 18.573 9.8l64.085 93.723c3.711 5.427 5.672 11.771 5.672 18.344zm16.5-37.5h-1.5v-27h1.5c7.444 0 13.5 6.056 13.5 13.5s-6.056 13.5-13.5 13.5z"/></g></svg>